<svg xmlns="http://www.w3.org/2000/svg" width="253.507" height="137.472" viewBox="0 0 253.507 137.472">
  <g id="StepOne" transform="translate(0 0)">
    <path id="chair_4_" d="M41.876,0a.5.5,0,0,1,.029.995h-18.2A22.655,22.655,0,0,0,1,23.21l0,.373V82.535a.5.5,0,0,1-1,.029V23.584A23.648,23.648,0,0,1,23.315,0l.392,0Z" transform="translate(24.208 54.439)" fill="#2e186a"/>
    <g id="man_1_" transform="translate(35.976 4.423)">
      <g id="hoodie_1_" transform="translate(0 23.428)">
        <path id="Path" d="M.456.034A.668.668,0,0,1,1.3.454l.1.3.159.49.1.327c.272.858.543,1.755.8,2.649q.172.606.325,1.181l.06.228A26.2,26.2,0,0,1,3.6,9.362a.667.667,0,0,1-1.328.131,24.55,24.55,0,0,0-.687-3.4l-.032-.122c-.116-.444-.242-.906-.377-1.382C.958,3.815.725,3.041.491,2.292l-.1-.319C.332,1.788.276,1.614.223,1.45L.035.875A.663.663,0,0,1,.456.034Z" transform="translate(55.617 57.042)" fill="#2e186a"/>
        <path id="Path-2" data-name="Path" d="M.808,0A.665.665,0,0,1,1.436.67L1.42.995c-.01.214-.02.459-.03.733l0,.1a84.157,84.157,0,0,0,.231,9.912.667.667,0,0,1-1.33.114A85.165,85.165,0,0,1,.043,2.07L.06,1.577Q.069,1.323.079,1.1L.1.625A.666.666,0,0,1,.775,0Z" transform="translate(79.89 54.902)" fill="#2e186a"/>
        <path id="Path-3" data-name="Path" d="M.151.142A.5.5,0,0,1,.859.15a1.193,1.193,0,0,1,.257.459L1.14.683c.05.153.1.34.158.588l.071.316c.065.3.2.911.227,1.05a25.147,25.147,0,0,0,.779,2.883c1.1,3.178,2.746,4.928,5.307,4.887a.5.5,0,1,1,.016,1c-3.1.049-5.049-2.02-6.27-5.559A25.418,25.418,0,0,1,.652,2.994L.367,1.685.326,1.506A5.721,5.721,0,0,0,.171.94C.157.9.145.87.134.847L.126.831c0-.006,0,0,.016.015A.5.5,0,0,1,.151.142Z" transform="translate(98.811 36.33)" fill="#2e186a"/>
        <path id="shape_6_" d="M9.843,0A22.3,22.3,0,0,0,0,8.365c4.471-1.826,19.837,11.85,30.731,8.746C25.676,16.58,14.815,8.647,9.843,0Z" transform="translate(22.033 39.849)" fill="#2e186a"/>
        <path id="Path-4" data-name="Path" d="M40.537.048a.5.5,0,1,1,.43.9c-6.14,2.9-9.664,6.466-10.832,10.525-1.023,3.553-.223,7.465,2.141,11.5a.5.5,0,0,1-.355.743c-1.4.217-3.43,1.4-6.167,3.917l-.219.2c-3.6,3.351-8.05,8.652-13.436,16.222-8.856,12.433-12.667,24-10.5,32.44C3.929,85.6,13.071,90.81,28.965,91.082a.5.5,0,1,1-.017,1C12.649,91.8,3.088,86.35.625,76.739c-2.252-8.785,1.647-20.614,10.656-33.262l.331-.464C16.941,35.562,21.362,30.327,24.963,27l.111-.1c2.449-2.248,4.406-3.511,5.938-3.991l.066-.02-.029-.052c-2.187-3.985-2.913-7.9-1.91-11.519l.033-.115C30.428,6.835,34.157,3.066,40.537.048Z" transform="translate(0 17.526)" fill="#2e186a"/>
        <path id="Path-5" data-name="Path" d="M33.828.118a.5.5,0,0,1,.758.133L34.6.284l.1.2q.119.233.289.559l.218.416q.514.975,1.249,2.32c.076.135.148.174.466.235l.041.008a2.924,2.924,0,0,1,1.409.539,5.385,5.385,0,0,1,1.605,2.208l.013.031L40,6.827,50.463,41.265l.008.028.1.4A58.711,58.711,0,0,1,52.45,53.94l0,.137c.079,4.425-.789,8.053-2.814,10.972-4.655,6.713-15.311,9.439-33.678,7.777L15.71,72.8l-.016.01a.5.5,0,0,1-.215.063h-.029a.5.5,0,0,1-.5-.469v-.129a.5.5,0,0,1,.548-.5c18.387,1.738,28.875-.89,33.319-7.3,1.892-2.729,2.713-6.157,2.637-10.389a56.735,56.735,0,0,0-1.815-11.982l-.137-.574L39.054,7.148l-.025-.055a4.466,4.466,0,0,0-1.2-1.7l-.039-.029a1.879,1.879,0,0,0-.889-.344L36.782,5a1.439,1.439,0,0,1-1.2-.742l-.388-.712q-.556-1.026-.962-1.8l-.2-.387-.047-.09-.031.023A13.063,13.063,0,0,1,28.394,3.4l-.135.022a28.1,28.1,0,0,1-7.434.087q-.326-.037-.616-.076L19.932,3.4l-.014.266c-.013.251-.026.536-.038.856l-.026.721-.022.734q-.006.231-.012.475A3.324,3.324,0,0,1,18.513,9.07l-.249.233a3.026,3.026,0,0,0-1.222,2.957l0,.052L21.63,36.737a.5.5,0,0,1-.568.583l-.028-.005L8.287,34.61a.5.5,0,0,1-.388-.4,33.709,33.709,0,0,0-2.346-7.666A21.037,21.037,0,0,0,.174,19.065a.5.5,0,0,1-.053-.7.5.5,0,0,1,.706-.053,22.014,22.014,0,0,1,5.64,7.829,34.436,34.436,0,0,1,2.326,7.419l.028.146,11.686,2.48L16.056,12.462l0-.033a4.324,4.324,0,0,1,.375-2.443,4.622,4.622,0,0,1,1.088-1.349l.2-.183a2.538,2.538,0,0,0,1.106-1.971l.018-.686q.006-.228.013-.444l.022-.652c.02-.55.041-1,.063-1.374L18.954,3l.017-.223a.5.5,0,0,1,.561-.448l.217.036.172.027c.3.045.638.091,1.016.133A27.135,27.135,0,0,0,28.1,2.443,11.6,11.6,0,0,0,33.828.118Z" transform="translate(78.173 0)" fill="#2e186a"/>
        <path id="Path-6" data-name="Path" d="M.493,0A.5.5,0,0,1,1,.461V.49l.217,14.19a.5.5,0,0,1-1,.044V14.7L0,.505A.5.5,0,0,1,.493,0Z" transform="translate(94.773 94.319)" fill="#2e186a"/>
        <path id="shape_7_" d="M10.661,1.427A30.355,30.355,0,0,0,4.2,0a23.571,23.571,0,0,1,.434,5.062C4.254,13.808.817,17.211,0,20.43,10.577,16.563,11.395,6.307,10.661,1.427Z" transform="translate(81.844 33.957)" fill="#2e186a"/>
      </g>
      <g id="shirt_2_" transform="translate(46.875 54.895)">
        <path id="Path-7" data-name="Path" d="M11.562,4.664c-.217,1.842-.651,2.622-4.988,4.846C5.456,10.074,3.12,11.3,0,12.862c.651,7.983,1.018,13.858,1.018,13.858l13.03.183S13.681,13.559,13.414,0A18.419,18.419,0,0,0,11.562,4.664Z" transform="translate(18.235 50.354)" fill="#fe7624"/>
        <path id="Path-8" data-name="Path" d="M31.315,24.165c.167-7.153-2.586-14.174-5.255-18.854-.434,6.522-1.819,14.091-3.32,16.563A146.544,146.544,0,0,0,6.273,12.066C3.62,7.817,1.385,4.016.417,1.261.434.846.45.415.45,0Q.2.025,0,.05C1.168,3.884,3.687,9.327,8.909,16.63a35.826,35.826,0,0,1,2.92,3.917h0c1.251,1.942,2.386,7.435,3.37,14.273,5.806-.8,10.294-.963,11.111.266l5.038.963C31.165,26.488,31.232,28.081,31.315,24.165Z" transform="translate(0 0)" fill="#fe7624"/>
      </g>
      <g id="hand_II_4_" transform="translate(27.822 88.578)">
        <g id="hand_II_5_" transform="translate(43.027 0.923)">
          <path id="Path-9" data-name="Path" d="M8.141.01a.5.5,0,0,1,.229.969L8.342.986.6,2.562a.5.5,0,0,1-.229-.969L.4,1.587Z" transform="translate(5.806 13.276)" fill="#2e186a"/>
          <path id="Path-10" data-name="Path" d="M8.076.756a11.919,11.919,0,0,1,12.262,2.3,18.616,18.616,0,0,1,5.026,7.445l.056.16a51.772,51.772,0,0,1,2,8.709l.108,1.438c.029.388.054.741.078,1.1l.03.455c.069,1.052.121,2.026.156,2.955l.011.3a35.861,35.861,0,0,1-.061,4.356l-.015.151c-.161,1.541-.486,2.381-1.271,2.432-.843.052-1.483-.981-2.246-2.971a46.219,46.219,0,0,1-1.439-4.62.5.5,0,0,1,.969-.251,45.309,45.309,0,0,0,1.406,4.516l.074.191a10.584,10.584,0,0,0,.77,1.626,2.311,2.311,0,0,0,.326.431l.033.03.025.021.012-.019a1.176,1.176,0,0,0,.087-.185l.015-.04a6.228,6.228,0,0,0,.258-1.407,36.548,36.548,0,0,0,.047-4.523l-.016-.4c-.034-.8-.08-1.637-.138-2.531l-.03-.452c-.018-.267-.037-.532-.057-.81l-.133-1.777a51.436,51.436,0,0,0-2-8.556,17.643,17.643,0,0,0-4.742-7.027C16.569,1.1,12.782.21,8.253,1.748l-.021.007L8.21,1.76.619,3.6a.5.5,0,0,1-.266-.96l.028-.008L7.952.8Z" transform="translate(0 0)" fill="#2e186a"/>
          <path id="Path-11" data-name="Path" d="M.527.449a.5.5,0,0,1,1,.1l-.01.094c-.014.129-.033.27-.057.435l-.06.39c-.038.238-.109.675-.128.8l-.037.241A16.954,16.954,0,0,0,1,4.972a5.868,5.868,0,0,0,.6,2.9.5.5,0,0,1-.2.676.5.5,0,0,1-.68-.2A6.8,6.8,0,0,1,0,4.964,18.3,18.3,0,0,1,.26,2.238L.427,1.189.465.937C.494.744.514.587.527.449Z" transform="translate(13.439 11.317)" fill="#2e186a"/>
          <path id="Path-12" data-name="Path" d="M6.181,0a.5.5,0,0,1,.441.523l0,.041-.01.078C6.6.716,6.589.8,6.575.89l-.029.2c-.031.207-.067.429-.108.664a25.324,25.324,0,0,1-.6,2.63l-.054.183c-.657,2.2-1.5,3.61-2.708,3.884a2.332,2.332,0,0,1-2.756-.9,2.377,2.377,0,0,1-.269-.659A1.965,1.965,0,0,1,0,6.573a.5.5,0,0,1,1-.1l0,.029a1.065,1.065,0,0,0,.028.153,1.4,1.4,0,0,0,.156.385c.27.448.758.647,1.674.438.735-.167,1.458-1.413,2.022-3.37a24.36,24.36,0,0,0,.571-2.526l.038-.223c.03-.182.057-.354.081-.516L5.6.65,5.626.44A.5.5,0,0,1,6.181,0Z" transform="translate(18.519 18.786)" fill="#2e186a"/>
          <path id="Path-13" data-name="Path" d="M6.59.01A.5.5,0,0,1,6.98.6L6.964.676c-.013.062-.029.133-.048.213-.053.227-.116.48-.189.752a20.943,20.943,0,0,1-.75,2.285L5.905,4.1c-.8,1.941-1.745,3.174-2.959,3.361A2.357,2.357,0,0,1,.289,6.437a2.348,2.348,0,0,1-.252-.714A1.985,1.985,0,0,1,0,5.377a.5.5,0,0,1,1-.029L1,5.4a1.283,1.283,0,0,0,.019.146,1.369,1.369,0,0,0,.145.413c.245.443.72.662,1.627.522C3.56,6.36,4.358,5.286,5.046,3.559a19.975,19.975,0,0,0,.714-2.176l.051-.192c.041-.157.078-.305.111-.444L5.96.578,6,.4A.5.5,0,0,1,6.59.01Z" transform="translate(15.349 18.537)" fill="#2e186a"/>
          <path id="Path-14" data-name="Path" d="M.469.444c1.047-.879,2.407-.51,3.75,1.622a.5.5,0,0,1-.158.686.5.5,0,0,1-.69-.157c-.6-.956-1.136-1.436-1.576-1.555a.708.708,0,0,0-.681.166,1.2,1.2,0,0,0-.1.092L1,1.312v.019c0,.031.006.065.011.1l.006.04a3.2,3.2,0,0,0,.217.715,9.86,9.86,0,0,0,1.988,2.8c.528.559.9.593,1.333.246A5.347,5.347,0,0,0,5.834,3.186a16.7,16.7,0,0,0,.59-1.727l.049-.173c.031-.113.06-.221.085-.322L6.6.8l.03-.126A.5.5,0,0,1,7.61.866L7.6.9l-.032.135-.022.091-.041.161c-.036.138-.076.286-.12.441a17.672,17.672,0,0,1-.626,1.83,6.13,6.13,0,0,1-1.57,2.45A1.832,1.832,0,0,1,2.5,5.675a10.8,10.8,0,0,1-2.182-3.1A3.253,3.253,0,0,1,0,1.158l0-.039c0-.03.006-.056.01-.075A.5.5,0,0,1,.085.87,1.914,1.914,0,0,1,.469.444Z" transform="translate(11.27 17.883)" fill="#2e186a"/>
        </g>
        <path id="welt_II_1_" d="M6.454,19.63C.548,14.867-1.437,2.884,1.049.262c.1-.83,2.019.564,3.17.7,2.786.315,3.987.4,3.987.4C7.071,4.81,8.339,8.992,9.624,11.963a32.606,32.606,0,0,0,1.919,3.817c-.217.116-1.118.548-3.253,1.477A3.5,3.5,0,0,0,6.454,19.63Z" transform="translate(42.495 0.543)" fill="#2e186a"/>
        <path id="Path-15" data-name="Path" d="M.342.8A16.433,16.433,0,0,1,6.6.051c2.894.261,5.073,1.5,6.126,3.9a.5.5,0,0,1-.918.4c-.887-2.026-2.736-3.073-5.3-3.3A15.447,15.447,0,0,0,.659,1.75.5.5,0,1,1,.342.8Z" transform="translate(1.785 0.889)" fill="#2e186a"/>
        <path id="lines_3_" d="M23.794,2.42C36.714-.12,44.474-.841,45.78,1.128a.5.5,0,0,1,.027.047l.012.024,6.14,13.676a.5.5,0,0,1,0,.414l-.019.036-.109.2-.08.149c-.069.128-.143.267-.221.416-.312.593-.623,1.213-.914,1.827-.147.31-.285.612-.412.9a11.1,11.1,0,0,0-.865,2.545l-.006.046c-.257,2.187-1.067,3.065-5.011,5.1l-.393.2c-.884.465-4.689,2.5-6.309,3.348-3.794,1.985-7.435,3.8-11.149,5.519-4.277,1.979-8.377,3.7-12.267,5.119A74.545,74.545,0,0,1,.579,44.448a.5.5,0,1,1-.156-.984,73.593,73.593,0,0,0,13.434-3.7c3.861-1.406,7.936-3.118,12.189-5.086,3.537-1.637,7.009-3.362,10.613-5.24l.892-.467c1.914-1.008,5.641-3,6.066-3.22l.341-.176C47.468,23.76,48.1,23.1,48.322,21.4l.013-.108a11.326,11.326,0,0,1,.948-2.874q.2-.449.424-.928c.3-.627.614-1.259.932-1.864l.138-.262.167-.311L44.925,1.65l-.009-.012c-.5-.615-2.884-.806-6.693-.469l-.236.021c-3.612.336-8.373,1.1-14,2.206-1.928.379-3.933.793-6,1.238-3.483.749-6.978,1.549-10.335,2.352l-1.038.249c-1.014.245-1.95.474-2.8.684l-.567.141-.844.213a.5.5,0,0,1-.277-.956l.038-.011L3.411,7l1.045-.259c.665-.164,1.376-.337,2.129-.518l.206-.05c3.555-.855,7.277-1.71,10.986-2.508C19.848,3.215,21.859,2.8,23.794,2.42Z" transform="translate(0 0)" fill="#2e186a"/>
      </g>
      <g id="head_4_" transform="translate(39.879 0)">
        <path id="neck_3_" d="M.787,0H.817A.5.5,0,0,1,1.3.514L1.016,9.294,1,9.664l.021.058c.841,2.324,2.542,5.4,5.569,10.26l.116.187.8.42a139.61,139.61,0,0,1,14.6,8.676l.535.364.038-.08c1.257-2.683,2.487-9.191,2.932-15.4l.027-.392a.5.5,0,0,1,1,.066c-.462,6.953-1.9,14.335-3.391,16.788a.5.5,0,0,1-.713.152l-.4-.271a142.128,142.128,0,0,0-16.02-9.506.5.5,0,0,1-.192-.178l-.476-.766C2.506,15.285.856,12.264.028,9.906A.5.5,0,0,1,0,9.726L.3.482A.5.5,0,0,1,.787,0Z" transform="translate(6.93 46.415)" fill="#2e186a"/>
        <path id="ear_4_" d="M5.549,0a.5.5,0,1,1,.093.991A6.641,6.641,0,0,0,2.555,2C1.281,2.867.724,4.2,1.131,6.21a3.221,3.221,0,0,0,2.4,2.808,7.062,7.062,0,0,0,3.546-.2.5.5,0,1,1,.267.96,7.985,7.985,0,0,1-4.066.207A4.208,4.208,0,0,1,.149,6.405C-.337,4,.386,2.269,1.991,1.18A7.576,7.576,0,0,1,5.549,0Z" transform="translate(0 34.249)" fill="#2e186a"/>
        <path id="face_3_" d="M.653,0a.5.5,0,0,1,.561.429A78.252,78.252,0,0,1,1,19.98.5.5,0,0,1,0,19.852,77.29,77.29,0,0,0,.221.562.5.5,0,0,1,.653,0Z" transform="translate(37.978 24.988)" fill="#2e186a"/>
        <path id="face_6_" d="M.955.433a.5.5,0,0,1,.992.13l-.07.519C1.6,3.084,1.3,4.87.99,6.264a.5.5,0,0,1-.978-.212l.051-.238C.372,4.362.682,2.5.955.433Z" transform="translate(37.027 44.39)" fill="#2e186a"/>
        <path id="beard_1_" d="M19.923,27.976c-.18,0-.362,0-.54-.009A19.206,19.206,0,0,1,14.3,27.1a15.288,15.288,0,0,1-4.267-2.049,18.713,18.713,0,0,1-4.253-3.768,9.81,9.81,0,0,1-1.151-1.968,20.85,20.85,0,0,1-.906-2.524l-.045-.151c-.326-1.1-.832-3.136-1.5-6.038L1.91,9.441l-.218-.956C1.343,6.947.969,5.263.578,3.479L.432,2.81.021.915.006.839A.5.5,0,0,1,.464.267L4.135,0h.036a.5.5,0,0,1,.357.149A19.06,19.06,0,0,1,6.87,4.256,43.32,43.32,0,0,1,9.078,9.835l.011.038.175-.053c.174-.052.365-.107.569-.164l.253-.07c1.115-.3,2.325-.588,3.6-.843A66.58,66.58,0,0,1,25.735,7.468h.019l.4.011.595.021.3.012c.629.027,1.244.062,1.829.1a24.249,24.249,0,0,1,4.65.637.5.5,0,0,1,.357.5l-.01.172-.017.248c-.005.072-.011.148-.018.226l-.014.163c-.058.674-.139,1.383-.24,2.107a37.418,37.418,0,0,1-1.438,6.4,23.61,23.61,0,0,1-1.432,3.485,14.964,14.964,0,0,1-1.838,2.8,9.653,9.653,0,0,1-3.863,2.722,13.779,13.779,0,0,1-5.092.9h0ZM3.959,1.012h0L1.11,1.219l.265,1.219.439,2c.3,1.35.585,2.637.855,3.827L2.836,9l.2.858c.738,3.208,1.284,5.41,1.622,6.545l.1.316a18.573,18.573,0,0,0,.815,2.234A8.845,8.845,0,0,0,6.6,20.7a17.065,17.065,0,0,0,3.791,3.371l.232.167a14.286,14.286,0,0,0,4,1.913,18.193,18.193,0,0,0,4.8.817c.17.005.341.008.509.008a12.8,12.8,0,0,0,4.686-.816,8.675,8.675,0,0,0,3.5-2.452,17.7,17.7,0,0,0,3.083-5.95,36.422,36.422,0,0,0,1.4-6.23c.084-.6.154-1.195.208-1.764l.026-.291q.007-.081.013-.158l.016-.212-.093-.021a27.215,27.215,0,0,0-3.591-.451l-.366-.026c-.67-.046-1.376-.084-2.1-.113-.226-.009-.453-.017-.675-.024l-.3-.008-.276,0a65.614,65.614,0,0,0-11.332,1.2l-.249.049c-1.193.239-2.331.5-3.382.786l-.3.081c-.355.1-.682.194-.973.284l-.109.034-.247.08a.5.5,0,0,1-.62-.361A35.6,35.6,0,0,0,6.291,5.392,26.491,26.491,0,0,0,3.976,1.035l-.018-.022Z" transform="translate(5.111 35.444)" fill="#2e186a"/>
        <path id="mouth_3_" d="M0,.137S2.719-.411,3.837.685" transform="translate(28.101 51.987)" fill="#fff"/>
        <path id="mouth_4_" d="M.88.073A8.1,8.1,0,0,1,2.707.036,3.23,3.23,0,0,1,4.689.828a.5.5,0,0,1,.005.7.5.5,0,0,1-.708.005A2.318,2.318,0,0,0,2.6,1.026a7.136,7.136,0,0,0-1.6.035c-.09.011-.173.023-.248.035l-.136.023-.022,0A.5.5,0,1,1,.4.147L.509.127C.6.111.73.092.88.073Z" transform="translate(27.601 51.488)" fill="#2e186a"/>
        <path id="nose_3_" d="M2.546,0A.5.5,0,0,1,3.1.413l0,.029,1,8.8a.5.5,0,0,1-.594.545l-.028-.006-3.1-.8A.5.5,0,0,1,.6,8.009l.029.006,2.4.616L2.105.554A.5.5,0,0,1,2.517.007Z" transform="translate(28.969 39.029)" fill="#2e186a"/>
        <ellipse id="eye_3_" cx="0.901" cy="1.394" rx="0.901" ry="1.394" transform="translate(33.924 39.129)" fill="#2e186a"/>
        <ellipse id="eye_II_3_" cx="0.901" cy="1.394" rx="0.901" ry="1.394" transform="translate(25.215 38.963)" fill="#2e186a"/>
        <path id="brow_II_3_" d="M1.031.894A4.573,4.573,0,0,1,4.5.057a.5.5,0,1,1-.148.985A3.577,3.577,0,0,0,1.623,1.7a3.771,3.771,0,0,0-.546.483l-.049.054c-.045.051-.078.091-.1.119l-.018.024a.5.5,0,0,1-.7.123A.5.5,0,0,1,.09,1.807a3.082,3.082,0,0,1,.25-.3A4.765,4.765,0,0,1,1.031.894Z" transform="translate(21.695 30.995)" fill="#2e186a"/>
        <path id="brow_3_" d="M.674.056A4.058,4.058,0,0,1,2.261.1,2.463,2.463,0,0,1,4.115,1.844a.5.5,0,0,1-.956.294A1.472,1.472,0,0,0,2.021,1.07,3.093,3.093,0,0,0,.829,1.04l-.062.01c-.048.008-.086.016-.113.022l-.027.006A.5.5,0,1,1,.375.115C.437.1.539.077.674.056Z" transform="translate(33.924 30.814)" fill="#2e186a"/>
        <path id="hair_4_" d="M42.464,24.059a2.827,2.827,0,0,1,.484-2.207l-.117-.133L42.264,23.3s-1.768.763-2.352-1.494a2.973,2.973,0,0,1,.884-2.357l-.017-.017c-2.452.564-7.274,1.494-7.708.531-.617-1.361,8.058-4.979,10.711-6.124a49.626,49.626,0,0,1,8.575-2.241,21.777,21.777,0,0,1,5.038-.066,7.267,7.267,0,0,0-.868-4.464,12.721,12.721,0,0,0-4.054-4.547C37.409-5.433,30.068,7.993,30.068,7.993a9.853,9.853,0,0,0-8.992-5.975,10.281,10.281,0,0,0-7.524,2.987,9.931,9.931,0,0,0-1.869,11.95,7.3,7.3,0,0,0-6.156.365A9.918,9.918,0,0,0,.288,28.64a56.884,56.884,0,0,0,3.32,9.394c13.714,2.108,17.217-11.286,15.2-13.012,3.036,2.241,8.509,3.734,17.768,2.8a23.741,23.741,0,0,0,7.374-2.307C43.415,25.47,42.831,25.138,42.464,24.059Z" transform="translate(1.987 0)" fill="#2e186a"/>
      </g>
      <g id="hand_4_" transform="translate(74.396 10.905)">
        <g id="hand_5_" transform="translate(0 0)">
          <path id="Path-16" data-name="Path" d="M.38.015a.5.5,0,0,1,.6.335L.986.378,3.045,8.6,14.923,5.1a.5.5,0,0,1,.613.308l.009.028a.5.5,0,0,1-.31.61l-.028.009L2.828,9.705a.5.5,0,0,1-.62-.329L2.2,9.348.015.618A.5.5,0,0,1,.38.015Z" transform="translate(22.279 11.378)" fill="#2e186a"/>
          <path id="Path-17" data-name="Path" d="M19.754.2a21.526,21.526,0,0,1,9.311.779,11.288,11.288,0,0,1,8.167,9.348l.019.12,1.762,6.547a.5.5,0,0,1-.313.6l-.028.009L26.893,21.066a.5.5,0,0,1-.312-.946l.028-.009L37.92,16.78l-1.642-6.1q0-.013-.006-.026l0-.027a10.312,10.312,0,0,0-7.517-8.7,20.568,20.568,0,0,0-8.726-.757l-.125.018a49.94,49.94,0,0,0-8.4,2.184L9.83,4.085l-.523.228-.4.177c-.866.381-1.666.743-2.428,1.1q-1.03.484-1.9.93l-.218.112A20.451,20.451,0,0,0,1.776,8.159a3.471,3.471,0,0,0-.685.619l-.032.045-.019.03.03.012a2.127,2.127,0,0,0,.549.1,11.163,11.163,0,0,0,1.96-.093,44.506,44.506,0,0,0,4.556-.829.5.5,0,1,1,.226.97c-1.552.357-3.167.664-4.512.829L3.7,9.856c-2.082.243-3.271.158-3.611-.6-.454-1,.926-2.03,3.936-3.577l.092-.047Q5,5.181,6.046,4.69L6.4,4.523C7.126,4.188,7.883,3.848,8.7,3.49l.839-.365,1.613-.694A51.1,51.1,0,0,1,19.754.2Z" transform="translate(0)" fill="#2e186a"/>
          <path id="Path-18" data-name="Path" d="M9.5.081A.5.5,0,0,1,10.2.225a.5.5,0,0,1-.145.689A28.965,28.965,0,0,1,5.788,2.987a15.051,15.051,0,0,1-5.3,1.328.5.5,0,1,1,.025-1,14.361,14.361,0,0,0,4.9-1.257l.277-.112A27.324,27.324,0,0,0,9.5.081Z" transform="translate(16.34 9.701)" fill="#2e186a"/>
          <path id="Path-19" data-name="Path" d="M6.029.218A.5.5,0,0,1,5.9.909l-.143.1-.068.048c-.171.121-.362.261-.568.416-.588.443-1.176.92-1.724,1.413A12.921,12.921,0,0,0,1.73,4.646a2.439,2.439,0,0,0-.7,1.818,1.556,1.556,0,0,0,.794,1.161,1.206,1.206,0,0,0,.762.034l.069-.019L2.7,7.624a.5.5,0,1,1,.391.917,1.884,1.884,0,0,1-.261.084,2.177,2.177,0,0,1-1.4-.082A2.512,2.512,0,0,1,.059,6.713,3.232,3.232,0,0,1,.928,4.05a13.86,13.86,0,0,1,1.795-1.9C3.294,1.633,3.9,1.137,4.515.678L4.672.561q.154-.114.3-.216L5.177.2,5.334.086A.5.5,0,0,1,6.029.218Z" transform="translate(6.837 4.324)" fill="#2e186a"/>
          <path id="Path-20" data-name="Path" d="M4.958.183a.5.5,0,0,1-.047.68L4.882.887,4.787.966l-.066.056c-.135.115-.287.248-.45.4-.466.421-.932.877-1.366,1.348a11.357,11.357,0,0,0-1.358,1.75,2.412,2.412,0,0,0-.491,1.863,1.66,1.66,0,0,0,.786,1.062,1.139,1.139,0,0,0,.818.022l.051-.017c.039-.014.067-.025.084-.033l.008,0a.5.5,0,0,1,.675.212.5.5,0,0,1-.213.671,1.959,1.959,0,0,1-.3.12,2.11,2.11,0,0,1-1.535-.066A2.615,2.615,0,0,1,.109,6.7,3.247,3.247,0,0,1,.69,4,12.3,12.3,0,0,1,2.167,2.093c.456-.5.944-.972,1.431-1.412L3.741.552q.14-.125.267-.233l.1-.084L4.254.112A.5.5,0,0,1,4.958.183Z" transform="translate(9.351 6.614)" fill="#2e186a"/>
          <path id="Path-21" data-name="Path" d="M3.408.117a.5.5,0,0,1,.705.06.5.5,0,0,1-.06.7L3.967.953,3.923.991c-.107.094-.226.2-.355.321-.368.341-.735.709-1.077,1.089A9.625,9.625,0,0,0,1.478,3.707l-.06.1C.766,4.889.859,5.455,1.846,5.727a7.451,7.451,0,0,0,4.03.3c.051-.017.1-.034.135-.051l.019-.009.006-.015a.782.782,0,0,0,.02-.545l-.015-.035c-.184-.4-.841-.727-2.2-.829a.5.5,0,1,1,.076-.993c1.683.128,2.67.612,3.034,1.411a1.717,1.717,0,0,1,.024,1.329,1.713,1.713,0,0,1-.13.283.5.5,0,0,1-.117.135,1.787,1.787,0,0,1-.537.263,8.318,8.318,0,0,1-4.615-.288c-1.812-.5-1.97-1.872-.95-3.505A10.577,10.577,0,0,1,1.746,1.735c.363-.4.751-.791,1.139-1.152L3.018.462,3.143.348,3.33.183Z" transform="translate(12.076 9.403)" fill="#2e186a"/>
        </g>
        <path id="welt_1_" d="M0,8.547c2.369,3.12,18.4.763,21.038-3.27C19.77,3.552,18.769,4.531,18.2,3.518,16.867,1.079,16.333,0,16.333,0,13.547,2.357,9.176,2.772,5.923,2.705A34.827,34.827,0,0,1,1.635,2.39c-.017.249-.083,1.245-.15,3.552A3.337,3.337,0,0,1,0,8.547Z" transform="translate(21.579 13.004)" fill="#2e186a"/>
      </g>
    </g>
    <path id="laptop_1_" d="M99.269,0H34.4a1.834,1.834,0,0,0-1.785,1.411L23.592,39.384H.085s-1.3,6.688,6.29,6.688H89.192a1.834,1.834,0,0,0,1.785-1.411L101.054,2.241A1.826,1.826,0,0,0,99.269,0Z" transform="translate(120.22 90.619)" fill="#2e186a"/>
    <g id="Question_marks_1_" transform="translate(40.521)">
      <path id="Shape" d="M24.974,73.971H24.34a8.087,8.087,0,0,1-7.44-4.908,8,8,0,0,1,0-6.249,8.08,8.08,0,0,1,7.44-4.908h.634a8.087,8.087,0,0,1,7.44,4.908,8,8,0,0,1-1.725,8.809,8.071,8.071,0,0,1-5.714,2.348Zm-.951-20.8a7.008,7.008,0,0,1-6.615-4.654,6.907,6.907,0,0,1-.375-2.9c.076-.91.132-1.72.182-2.434a26.984,26.984,0,0,1,.419-3.822c.189-.841,1.006-1.863,2.569-3.218,1.411-1.223,3.311-2.611,5.323-4.082l.026-.019.591-.432A17.79,17.79,0,0,0,30.9,26.953a8.639,8.639,0,0,0,1-2.417,12.079,12.079,0,0,0,.336-2.927,9.357,9.357,0,0,0-.628-3.521,7.24,7.24,0,0,0-.787-1.448,7.343,7.343,0,0,0-1.1-1.238,8.539,8.539,0,0,0-2.776-1.695,9.529,9.529,0,0,0-3.314-.562,10.861,10.861,0,0,0-3.26.467,8.4,8.4,0,0,0-2.675,1.4,9.421,9.421,0,0,0-2.093,2.339,14.3,14.3,0,0,0-1.515,3.277,7.045,7.045,0,0,1-1.055,2.033,7.14,7.14,0,0,1-1.6,1.556A7.338,7.338,0,0,1,7.19,25.563a7.438,7.438,0,0,1-1.019-.07,7.284,7.284,0,0,1-1.633-.425A7.078,7.078,0,0,1,1.914,23.28,7.179,7.179,0,0,1,.026,19.017a7.1,7.1,0,0,1,.049-1.628A7.278,7.278,0,0,1,.515,15.75a26.419,26.419,0,0,1,2.828-5.317A23.231,23.231,0,0,1,5.133,8.172a22.625,22.625,0,0,1,2.04-2,25.3,25.3,0,0,1,3.794-2.7,24.734,24.734,0,0,1,4.2-1.929A26.728,26.728,0,0,1,19.755.386,31.458,31.458,0,0,1,24.74,0a33.114,33.114,0,0,1,5.08.379,27.59,27.59,0,0,1,4.653,1.137,24.659,24.659,0,0,1,8.019,4.541A22.213,22.213,0,0,1,45.625,9.3a18.968,18.968,0,0,1,2.242,3.644,18.761,18.761,0,0,1,1.348,4.049,21.566,21.566,0,0,1,.45,4.453,21.307,21.307,0,0,1-.186,2.829,19.815,19.815,0,0,1-.559,2.71,19.526,19.526,0,0,1-.931,2.592,20.428,20.428,0,0,1-1.3,2.474A22.57,22.57,0,0,1,45.008,34.4a26.073,26.073,0,0,1-2.05,2.237,34.309,34.309,0,0,1-5.221,4.12A44.469,44.469,0,0,0,33.572,43.8a9.717,9.717,0,0,0-2.125,2.29,6.31,6.31,0,0,0-.617,1.66,7.011,7.011,0,0,1-2.452,3.9,6.953,6.953,0,0,1-4.354,1.525Z" transform="translate(149.59 53.576)" fill="#fe7624"/>
      <path id="Shape-2" data-name="Shape" d="M10.145,17.257a1.976,1.976,0,0,1-1.8-1.174A1.893,1.893,0,0,1,8.323,14.6a1.963,1.963,0,0,1,1.041-1.072l.15-.066a1.905,1.905,0,0,1,.77-.162,1.976,1.976,0,0,1,1.8,1.174,1.9,1.9,0,0,1,.031,1.479,1.943,1.943,0,0,1-1.049,1.077l-.15.066A1.905,1.905,0,0,1,10.145,17.257ZM8.163,12.642a1.687,1.687,0,0,1-1.6-1.155c-.072-.216-.138-.405-.2-.572a7.248,7.248,0,0,1-.27-.872A5.531,5.531,0,0,1,7.12,7.689h0L7.228,7.5a3.989,3.989,0,0,0,.6-1.494A2.356,2.356,0,0,0,7.611,4.7,1.882,1.882,0,0,0,6.46,3.57a2.007,2.007,0,0,0-.669-.117,2.256,2.256,0,0,0-.9.2,2.245,2.245,0,0,0-1.139.981,2.761,2.761,0,0,0-.263,1.591,1.71,1.71,0,0,1-.3,1.151,1.8,1.8,0,0,1-.98.691A1.734,1.734,0,0,1,.542,7.648,1.726,1.726,0,0,1,0,6.441a5.866,5.866,0,0,1,.55-2.772A5.975,5.975,0,0,1,1.881,1.875,6.984,6.984,0,0,1,3.858.615a7.778,7.778,0,0,1,1.4-.462A6.332,6.332,0,0,1,6.629,0,6.049,6.049,0,0,1,8.4.267a5.051,5.051,0,0,1,1.862,1.012,4.8,4.8,0,0,1,1.224,1.709,4.909,4.909,0,0,1,.373,1.3,4.769,4.769,0,0,1-.008,1.338A6.893,6.893,0,0,1,10.7,8.416a5.361,5.361,0,0,0-.884,1.776,1.813,1.813,0,0,0,.014.405l0,.026a1.7,1.7,0,0,1-.161,1.118,1.656,1.656,0,0,1-.824.757A1.706,1.706,0,0,1,8.163,12.642Z" transform="translate(0 26.29)" fill="#fe7624"/>
      <path id="Shape-3" data-name="Shape" d="M7.382,24.42c-.05,0-.1,0-.152,0L7.014,24.4a2.683,2.683,0,0,1-1.842-.877,2.6,2.6,0,0,1-.678-1.911A2.66,2.66,0,0,1,7.145,19.1c.05,0,.1,0,.152,0l.217.017a2.659,2.659,0,0,1,2.519,2.788,2.6,2.6,0,0,1-.824,1.784A2.657,2.657,0,0,1,7.382,24.42Zm.026-6.873-.111,0A2.308,2.308,0,0,1,5.2,15.9a2.262,2.262,0,0,1-.072-.96c.036-.263.066-.5.093-.713a9.556,9.556,0,0,1,.224-1.345,2.4,2.4,0,0,1,.9-1.008c.482-.374,1.129-.8,1.815-1.242l.24-.156A6.2,6.2,0,0,0,10.05,9.031a3.274,3.274,0,0,0,.534-1.743,3.069,3.069,0,0,0-.14-1.17A2.368,2.368,0,0,0,9.867,5.2,2.912,2.912,0,0,0,7.9,4.334c-.076,0-.153-.006-.227-.006a3.379,3.379,0,0,0-1,.144,2.762,2.762,0,0,0-.843.431A3.871,3.871,0,0,0,4.611,6.624a2.314,2.314,0,0,1-.89,1.1,2.441,2.441,0,0,1-1.349.4,2.485,2.485,0,0,1-.464-.044A2.366,2.366,0,0,1,.223,4.765,8.778,8.778,0,0,1,1.251,3.06,7.359,7.359,0,0,1,2.592,1.728,8.279,8.279,0,0,1,5.034.435,9.057,9.057,0,0,1,7.867,0c.207,0,.419.006.631.019a10.016,10.016,0,0,1,3.176.676,8.1,8.1,0,0,1,2.563,1.647,6.762,6.762,0,0,1,1.65,2.367,6.52,6.52,0,0,1,.436,2.828,6.688,6.688,0,0,1-.344,1.812,6.543,6.543,0,0,1-.83,1.628,8.055,8.055,0,0,1-1.315,1.448,11.559,11.559,0,0,1-1.8,1.27,6.875,6.875,0,0,0-2.169,1.643,2.284,2.284,0,0,0-.234.531,2.24,2.24,0,0,1-.825,1.218A2.315,2.315,0,0,1,7.408,17.547Z" transform="translate(10.425)" fill="#fe7624"/>
    </g>
    <path id="line_3_" d="M253.006,0a.5.5,0,0,1,.029.995H.5A.5.5,0,0,1,.471,0H253.006Z" transform="translate(0 136.443)" fill="#2e186a"/>
  </g>
</svg>
